<?xml version="1.0" encoding="UTF-8" standalone="no"?>
<!-- Uploaded to: SVG Repo, www.svgrepo.com, Generator: SVG Repo Mixer Tools -->

<svg
   fill="#000000"
   height="16"
   width="16"
   version="1.1"
   id="Capa_1"
   viewBox="0 0 9.8890021 9.8890021"
   xml:space="preserve"
   xmlns="http://www.w3.org/2000/svg"
   xmlns:svg="http://www.w3.org/2000/svg"><defs
   id="defs6" />
<g
   id="g6"
   transform="matrix(0.02,0,0,0.02,1.05e-6,1.1796997e-6)"><path
     d="m 395.225,277.325 c -6.8,0 -13.5,-2.6 -18.7,-7.8 -71.4,-71.3 -187.4,-71.3 -258.8,0 -10.3,10.3 -27.1,10.3 -37.4,0 -10.3,-10.3 -10.3,-27.1 0,-37.4 92,-92 241.6,-92 333.6,0 10.3,10.3 10.3,27.1 0,37.4 -5.2,5.2 -12,7.8 -18.7,7.8 z"
     id="path1"
     style="fill:#ffffff;fill-opacity:1;stroke:none;stroke-opacity:1" /><path
     d="m 323.625,348.825 c -6.8,0 -13.5,-2.6 -18.7,-7.8 -15.4,-15.4 -36,-23.9 -57.8,-23.9 -21.8,0 -42.4,8.5 -57.8,23.9 -10.3,10.3 -27.1,10.3 -37.4,0 -10.3,-10.3 -10.3,-27.1 0,-37.4 25.4,-25.4 59.2,-39.4 95.2,-39.4 36,0 69.8,14 95.2,39.5 10.3,10.3 10.3,27.1 0,37.4 -5.1,5.1 -11.9,7.7 -18.7,7.7 z"
     id="path2"
     style="fill:#ffffff;fill-opacity:1;stroke:none;stroke-opacity:1" /><circle
     cx="247.125"
     cy="398.92499"
     r="35.299999"
     id="circle2"
     style="fill:#ffffff;fill-opacity:1;stroke:none;stroke-opacity:1" /><path
     d="m 467.925,204.625 c -6.8,0 -13.5,-2.6 -18.7,-7.8 -111.5,-111.4 -292.7,-111.4 -404.1,0 -10.3,10.3 -27.1,10.3 -37.4,0 -10.3,-10.3 -10.3,-27.1 0,-37.4 64,-64 149,-99.2 239.5,-99.2 90.5,0 175.5,35.2 239.5,99.2 10.3,10.3 10.3,27.1 0,37.4 -5.3,5.2 -12.1,7.8 -18.8,7.8 z"
     id="path3"
     style="fill:#ffffff;fill-opacity:1;stroke:none;stroke-opacity:1" /></g>
</svg>
